<svg width="1000" height="977" viewBox="0 0 1000 977" fill="none" xmlns="http://www.w3.org/2000/svg">
<path d="M500 0C434.339 0 369.321 12.9433 308.658 38.091C247.995 63.2386 192.876 100.098 146.447 146.565C52.6784 240.409 0 367.688 0 500.404C0 721.582 143.5 909.234 342 975.787C367 979.791 375 964.278 375 950.767V866.199C236.5 896.223 207 799.145 207 799.145C184 741.098 151.5 725.585 151.5 725.585C106 694.56 155 695.561 155 695.561C205 699.064 231.5 747.103 231.5 747.103C275 823.164 348.5 800.646 377 788.636C381.5 756.11 394.5 734.092 408.5 721.582C297.5 709.072 181 666.037 181 475.384C181 419.839 200 375.303 232.5 339.774C227.5 327.264 210 275.222 237.5 207.668C237.5 207.668 279.5 194.157 375 258.709C414.5 247.7 457.5 242.195 500 242.195C542.5 242.195 585.5 247.7 625 258.709C720.5 194.157 762.5 207.668 762.5 207.668C790 275.222 772.5 327.264 767.5 339.774C800 375.303 819 419.839 819 475.384C819 666.538 702 708.572 590.5 721.082C608.5 736.594 625 767.119 625 813.657V950.767C625 964.278 633 980.291 658.5 975.787C857 908.733 1000 721.582 1000 500.404C1000 434.69 987.067 369.619 961.94 308.908C936.812 248.196 899.983 193.032 853.553 146.565C807.124 100.098 752.005 63.2386 691.342 38.091C630.679 12.9433 565.661 0 500 0Z" fill="#f5e8c6"/>
</svg>
