<svg width="1000" height="1000" viewBox="0 0 1000 1000" fill="none" xmlns="http://www.w3.org/2000/svg">
<path fill-rule="evenodd" clip-rule="evenodd" d="M500 1000C776.142 1000 1000 776.142 1000 500C1000 223.858 776.142 0 500 0C223.858 0 0 223.858 0 500C0 776.142 223.858 1000 500 1000ZM329.236 800V395.634H194.743V800H329.236ZM317.213 320.555C331.206 307.226 338.066 290.632 337.794 270.775C337.523 250.645 330.594 233.983 317.009 220.79C303.424 207.597 285.356 201 262.805 201C240.253 201 221.982 207.597 207.989 220.79C193.996 233.983 187 250.645 187 270.775C187 290.632 193.793 307.226 207.378 320.555C220.963 333.884 238.895 340.549 261.174 340.549H261.99C284.812 340.549 303.22 333.884 317.213 320.555ZM813 800V568.234C813 508.661 798.872 463.437 770.615 432.562C742.358 401.687 704.999 386.249 658.538 386.249C641.421 386.249 625.866 388.358 611.873 392.574C597.88 396.79 586.061 402.707 576.416 410.324C566.771 417.94 559.095 425.013 553.389 431.542C547.969 437.744 542.67 444.929 537.495 453.096V395.634H403.41L403.818 415.22C404.089 428.277 404.225 468.537 404.225 535.999C404.225 603.462 403.954 691.462 403.41 800H537.495V574.355C537.495 560.482 538.989 549.465 541.978 541.304C547.684 527.431 556.31 515.801 567.857 506.417C579.405 497.032 593.737 492.339 610.854 492.339C634.221 492.339 651.406 500.432 662.41 516.617C673.413 532.803 678.915 555.177 678.915 583.74V800H813Z" fill="#f5e8c6"/>
</svg>
